<svg xmlns="http://www.w3.org/2000/svg" width="75" viewBox="0 0 75 30" height="30" version="1.0"><g fill="#FFF"><g><g><path d="M 0.59375 0 L 0.59375 -5.515625 L 2.09375 -5.515625 L 2.09375 0 Z M 0.59375 0" transform="translate(13.517 17.097)"/></g></g><g><g><path d="M 3.875 0 L 0.59375 0 L 0.59375 -5.515625 L 3.875 -5.515625 L 3.875 -4.328125 L 2.09375 -4.328125 L 2.09375 -3.453125 L 3.75 -3.453125 L 3.75 -2.265625 L 2.09375 -2.265625 L 2.09375 -1.21875 L 3.875 -1.21875 Z M 3.875 0" transform="translate(16.213 17.097)"/></g></g><g><g><path d="M 3.875 0 L 0.59375 0 L 0.59375 -5.515625 L 3.875 -5.515625 L 3.875 -4.328125 L 2.09375 -4.328125 L 2.09375 -3.453125 L 3.75 -3.453125 L 3.75 -2.265625 L 2.09375 -2.265625 L 2.09375 -1.21875 L 3.875 -1.21875 Z M 3.875 0" transform="translate(20.462 17.097)"/></g></g><g><g><path d="M 3.875 0 L 0.59375 0 L 0.59375 -5.515625 L 3.875 -5.515625 L 3.875 -4.328125 L 2.09375 -4.328125 L 2.09375 -3.453125 L 3.75 -3.453125 L 3.75 -2.265625 L 2.09375 -2.265625 L 2.09375 -1.21875 L 3.875 -1.21875 Z M 3.875 0" transform="translate(24.71 17.097)"/></g></g><g><g><path d="M 3.0625 -4.375 C 2.695312 -4.375 2.414062 -4.226562 2.21875 -3.9375 C 2.019531 -3.644531 1.921875 -3.242188 1.921875 -2.734375 C 1.921875 -1.671875 2.328125 -1.140625 3.140625 -1.140625 C 3.378906 -1.140625 3.613281 -1.171875 3.84375 -1.234375 C 4.070312 -1.304688 4.304688 -1.390625 4.546875 -1.484375 L 4.546875 -0.234375 C 4.078125 -0.0234375 3.550781 0.078125 2.96875 0.078125 C 2.132812 0.078125 1.492188 -0.160156 1.046875 -0.640625 C 0.609375 -1.128906 0.390625 -1.832031 0.390625 -2.75 C 0.390625 -3.320312 0.492188 -3.820312 0.703125 -4.25 C 0.921875 -4.6875 1.234375 -5.019531 1.640625 -5.25 C 2.046875 -5.476562 2.523438 -5.59375 3.078125 -5.59375 C 3.671875 -5.59375 4.238281 -5.46875 4.78125 -5.21875 L 4.328125 -4.03125 C 4.117188 -4.132812 3.910156 -4.21875 3.703125 -4.28125 C 3.503906 -4.34375 3.289062 -4.375 3.0625 -4.375 Z M 3.0625 -4.375" transform="translate(30.97 17.097)"/></g></g><g><g><path d="M 3.0625 -4.375 C 2.695312 -4.375 2.414062 -4.226562 2.21875 -3.9375 C 2.019531 -3.644531 1.921875 -3.242188 1.921875 -2.734375 C 1.921875 -1.671875 2.328125 -1.140625 3.140625 -1.140625 C 3.378906 -1.140625 3.613281 -1.171875 3.84375 -1.234375 C 4.070312 -1.304688 4.304688 -1.390625 4.546875 -1.484375 L 4.546875 -0.234375 C 4.078125 -0.0234375 3.550781 0.078125 2.96875 0.078125 C 2.132812 0.078125 1.492188 -0.160156 1.046875 -0.640625 C 0.609375 -1.128906 0.390625 -1.832031 0.390625 -2.75 C 0.390625 -3.320312 0.492188 -3.820312 0.703125 -4.25 C 0.921875 -4.6875 1.234375 -5.019531 1.640625 -5.25 C 2.046875 -5.476562 2.523438 -5.59375 3.078125 -5.59375 C 3.671875 -5.59375 4.238281 -5.46875 4.78125 -5.21875 L 4.328125 -4.03125 C 4.117188 -4.132812 3.910156 -4.21875 3.703125 -4.28125 C 3.503906 -4.34375 3.289062 -4.375 3.0625 -4.375 Z M 3.0625 -4.375" transform="translate(35.995 17.097)"/></g></g><g><g><path d="M 3.875 0 L 0.59375 0 L 0.59375 -5.515625 L 3.875 -5.515625 L 3.875 -4.328125 L 2.09375 -4.328125 L 2.09375 -3.453125 L 3.75 -3.453125 L 3.75 -2.265625 L 2.09375 -2.265625 L 2.09375 -1.21875 L 3.875 -1.21875 Z M 3.875 0" transform="translate(41.019 17.097)"/></g></g><g><g><path d="M 3.03125 0 L 1.546875 0 L 1.546875 -4.296875 L 0.1875 -4.296875 L 0.1875 -5.515625 L 4.375 -5.515625 L 4.375 -4.296875 L 3.03125 -4.296875 Z M 3.03125 0" transform="translate(45.268 17.097)"/></g></g></g></svg>